<svg width="406" height="1701" viewBox="0 0 406 1701" fill="none" xmlns="http://www.w3.org/2000/svg">
<path d="M309 477.5C309 885.585 408.79 1246 355.351 1246C301.911 1246 386 886.797 386 668.58C351.039 -186.491 -21.2234 170.487 37.2105 170.487C106.132 170.487 354.5 -194 309 477.5Z" fill="#E4E4E4"/>
<path d="M69.6524 147.812C69.6524 196.793 152.332 242 133.098 242C113.864 242 0 196.793 0 147.812C0 98.8317 103.175 0 122.409 0C141.643 0 69.6524 98.8317 69.6524 147.812Z" fill="#E4E4E4"/>
<path d="M352.5 1669C345.596 1669 406 1628.33 406 1469C406 1309.67 345.596 1036 352.5 1036C359.403 1036 325 1204.17 325 1363.5C325 1542 359.403 1669 352.5 1669Z" fill="#E4E4E4"/>
</svg>
